<?xml version="1.0" encoding="UTF-8"?>
<!DOCTYPE svg PUBLIC "-//W3C//DTD SVG 1.1//EN" "http://www.w3.org/Graphics/SVG/1.1/DTD/svg11.dtd">
<svg xmlns="http://www.w3.org/2000/svg" version="1.1" width="372px" height="101px" style="shape-rendering:geometricPrecision; text-rendering:geometricPrecision; image-rendering:optimizeQuality; fill-rule:evenodd; clip-rule:evenodd" xmlns:xlink="http://www.w3.org/1999/xlink">
<g><path style="opacity:0.22" fill="#fee7e3" d="M -0.5,-0.5 C 123.5,-0.5 247.5,-0.5 371.5,-0.5C 371.5,33.1667 371.5,66.8333 371.5,100.5C 247.5,100.5 123.5,100.5 -0.5,100.5C -0.5,66.8333 -0.5,33.1667 -0.5,-0.5 Z"/></g>
<g><path style="opacity:0.828" fill="#ff8c74" d="M 77.5,7.5 C 79.0894,9.30556 81.0894,10.6389 83.5,11.5C 82.2048,13.3279 81.2048,15.3279 80.5,17.5C 78.8333,16.1667 77.1667,16.1667 75.5,17.5C 74.7952,15.3279 73.7952,13.3279 72.5,11.5C 74.8263,10.8553 76.493,9.52195 77.5,7.5 Z"/></g>
<g><path style="opacity:0.858" fill="#ff8972" d="M 89.5,10.5 C 91.5952,11.412 93.5952,12.5787 95.5,14C 93.8446,15.4443 93.178,17.2776 93.5,19.5C 91.2075,19.2436 89.0408,19.5769 87,20.5C 86.9071,17.9925 86.0738,15.8259 84.5,14C 86.4308,13.0978 88.0975,11.9312 89.5,10.5 Z"/></g>
<g><path style="opacity:0.8" fill="#ff876f" d="M 65.5,9.5 C 66.8968,11.3793 68.5635,13.0459 70.5,14.5C 69.8108,16.444 69.3108,18.444 69,20.5C 67.3292,18.7237 65.4959,18.3904 63.5,19.5C 62.7952,17.3279 61.7952,15.3279 60.5,13.5C 62.8263,12.8553 64.493,11.522 65.5,9.5 Z"/></g>
<g><path style="opacity:0.475" fill="#ffc7bb" d="M 64.5,14.5 C 66.337,14.6395 66.6704,15.3061 65.5,16.5C 64.7025,16.0431 64.3691,15.3764 64.5,14.5 Z"/></g>
<g><path style="opacity:0.549" fill="#ffcbc1" d="M 89.5,14.5 C 91.337,14.6395 91.6704,15.3061 90.5,16.5C 89.7025,16.0431 89.3691,15.3764 89.5,14.5 Z"/></g>
<g><path style="opacity:0.789" fill="#fd8a73" d="M 59.5,22.5 C 58.5655,23.5676 58.2322,24.901 58.5,26.5C 56.4816,25.3775 54.4816,25.3775 52.5,26.5C 51.9278,24.0829 50.9278,21.9162 49.5,20C 51.9249,19.7073 53.7582,18.5407 55,16.5C 56.4196,18.422 58.2529,19.7554 60.5,20.5C 60.1373,21.1835 59.8039,21.8501 59.5,22.5 Z"/></g>
<g><path style="opacity:0.886" fill="#ff8971" d="M 98.5,26.5 C 97.9348,24.58 96.9348,22.9133 95.5,21.5C 97.3228,19.9743 99.1562,18.3076 101,16.5C 102.087,18.7518 103.921,20.0851 106.5,20.5C 104.985,22.5473 104.151,24.8807 104,27.5C 102.3,25.7011 100.467,25.3677 98.5,26.5 Z"/></g>
<g><path style="opacity:0.443" fill="#f9c2b6" d="M 54.5,20.5 C 56.337,20.6395 56.6704,21.3061 55.5,22.5C 54.7025,22.0431 54.3691,21.3764 54.5,20.5 Z"/></g>
<g><path style="opacity:0.338" fill="#ffd2ca" d="M 95.5,21.5 C 96.9348,22.9133 97.9348,24.58 98.5,26.5C 97.8106,27.7736 96.9772,27.7736 96,26.5C 95.5065,28.1341 95.3398,29.8008 95.5,31.5C 97.7354,31.2053 99.7354,31.5386 101.5,32.5C 99.1667,32.5 96.8333,32.5 94.5,32.5C 94.1103,29.5342 94.777,26.8676 96.5,24.5C 84.1667,23.1667 71.8333,23.1667 59.5,24.5C 61.223,26.8676 61.8897,29.5342 61.5,32.5C 59.1667,32.5 56.8333,32.5 54.5,32.5C 56.2646,31.5386 58.2646,31.2053 60.5,31.5C 60.9227,29.2188 60.256,27.5521 58.5,26.5C 58.2322,24.901 58.5655,23.5676 59.5,22.5C 71.6783,22.8284 83.6783,22.4951 95.5,21.5 Z"/></g>
<g><path style="opacity:0.565" fill="#ffc6ba" d="M 99.5,21.5 C 101.337,21.6395 101.67,22.3061 100.5,23.5C 99.7025,23.0431 99.3691,22.3764 99.5,21.5 Z"/></g>
<g><path style="opacity:0.96" fill="#ff8972" d="M 142.5,7.5 C 143.376,7.36912 144.043,7.70245 144.5,8.5C 146.579,12.9926 148.912,17.326 151.5,21.5C 154,17.1667 156.5,12.8333 159,8.5C 159.718,7.54943 160.551,7.38277 161.5,8C 157.872,14.7551 154.372,21.5885 151,28.5C 150.035,30.2603 148.868,30.5937 147.5,29.5C 148.752,27.9991 149.752,26.3325 150.5,24.5C 147.527,18.8907 144.86,13.224 142.5,7.5 Z"/></g>
<g><path style="opacity:0.383" fill="#fecdc4" d="M 54.5,32.5 C 54.8212,34.0481 55.8212,34.7148 57.5,34.5C 57.5,49.5 57.5,64.5 57.5,79.5C 55.5,79.5 53.5,79.5 51.5,79.5C 52.9187,78.5489 54.5853,78.2155 56.5,78.5C 56.5,64.1667 56.5,49.8333 56.5,35.5C 55.5,35.5 54.5,35.5 53.5,35.5C 53.2627,34.209 53.596,33.209 54.5,32.5 Z"/></g>
<g><path style="opacity:0.213" fill="#fedfd9" d="M 59.5,34.5 C 71.8333,34.5 84.1667,34.5 96.5,34.5C 96.5,38.1667 96.5,41.8333 96.5,45.5C 94.9397,43.8439 93.9397,41.8439 93.5,39.5C 91.7182,37.3131 89.5515,36.9797 87,38.5C 86.1816,41.2272 86.3483,43.8938 87.5,46.5C 88.4742,44.2573 88.8076,41.924 88.5,39.5C 89.5,39.5 90.5,39.5 91.5,39.5C 92.756,45.1749 90.9226,49.5082 86,52.5C 85.077,54.0344 84.577,55.701 84.5,57.5C 86.4377,64.979 88.771,72.3123 91.5,79.5C 89.1667,79.5 86.8333,79.5 84.5,79.5C 84.5,73.8333 84.5,68.1667 84.5,62.5C 80.5,62.5 76.5,62.5 72.5,62.5C 72.5,68.1667 72.5,73.8333 72.5,79.5C 68.1667,79.5 63.8333,79.5 59.5,79.5C 59.5,64.5 59.5,49.5 59.5,34.5 Z"/></g>
<g><path style="opacity:0.966" fill="#fe846c" d="M 143.5,36.5 C 147.605,36.2338 151.605,36.7338 155.5,38C 159.41,41.9247 159.41,45.9247 155.5,50C 152.274,51.1989 148.941,51.6989 145.5,51.5C 145.817,54.5719 145.484,57.5719 144.5,60.5C 143.502,52.5277 143.169,44.5277 143.5,36.5 Z"/></g>
<g><path style="opacity:0.823" fill="#ff846c" d="M 63.5,37.5 C 65.4672,37.2606 67.3005,37.5939 69,38.5C 69.8184,41.2272 69.6517,43.8938 68.5,46.5C 67.5258,44.2573 67.1924,41.924 67.5,39.5C 66.5,39.5 65.5,39.5 64.5,39.5C 64.8076,41.924 64.4742,44.2573 63.5,46.5C 62.2588,43.463 62.2588,40.463 63.5,37.5 Z"/></g>
<g><path style="opacity:0.85" fill="#fe856d" d="M 75.5,37.5 C 77.4672,37.2606 79.3005,37.5939 81,38.5C 81.8184,41.2272 81.6517,43.8938 80.5,46.5C 79.5258,44.2573 79.1924,41.924 79.5,39.5C 78.5,39.5 77.5,39.5 76.5,39.5C 76.8076,41.924 76.4742,44.2573 75.5,46.5C 74.2588,43.463 74.2588,40.463 75.5,37.5 Z"/></g>
<g><path style="opacity:0.262" fill="#ffe6e1" d="M 145.5,38.5 C 149.516,37.8999 153.016,38.8999 156,41.5C 156.896,44.025 156.396,46.1917 154.5,48C 151.649,49.2886 148.649,49.7886 145.5,49.5C 145.5,45.8333 145.5,42.1667 145.5,38.5 Z"/></g>
<g><path style="opacity:0.984" fill="#fc846c" d="M 256.5,60.5 C 256.5,56.8333 256.5,53.1667 256.5,49.5C 253.615,49.1936 250.948,49.5269 248.5,50.5C 247.504,50.4142 246.671,50.7476 246,51.5C 245.667,54.1667 245.333,56.8333 245,59.5C 244.107,60.7112 243.274,60.7112 242.5,59.5C 242.935,55.6195 243.935,51.9528 245.5,48.5C 242.372,43.9765 243.039,40.1432 247.5,37C 251.152,36.5014 254.818,36.3347 258.5,36.5C 259.134,44.9032 258.467,52.9032 256.5,60.5 Z"/></g>
<g><path style="opacity:0.482" fill="#ffc2b7" d="M 255.5,38.5 C 256.479,41.6248 256.813,44.9581 256.5,48.5C 253.941,48.8016 251.607,48.4682 249.5,47.5C 251.5,47.5 253.5,47.5 255.5,47.5C 255.5,44.5 255.5,41.5 255.5,38.5 Z"/></g>
<g><path style="opacity:0.24" fill="#fde4e0" d="M 255.5,38.5 C 255.5,41.5 255.5,44.5 255.5,47.5C 253.5,47.5 251.5,47.5 249.5,47.5C 244.604,45.3799 244.271,42.5466 248.5,39C 250.81,38.5034 253.143,38.3367 255.5,38.5 Z"/></g>
<g><path style="opacity:0.976" fill="#fe8972" d="M 178.5,36.5 C 179.239,36.369 179.906,36.5357 180.5,37C 183.216,40.2609 186.049,43.4276 189,46.5C 191.675,42.9947 194.509,39.6614 197.5,36.5C 198.833,44.5 198.833,52.5 197.5,60.5C 196.669,53.8581 196.169,47.1915 196,40.5C 193.968,43.5254 191.635,46.192 189,48.5C 185.679,46.5125 183.012,43.8458 181,40.5C 180.831,47.1915 180.331,53.8581 179.5,60.5C 178.502,52.5277 178.169,44.5277 178.5,36.5 Z"/></g>
<g><path style="opacity:0.245" fill="#ffe3de" d="M 96.5,83.5 C 95.8333,82.1667 95.1667,80.8333 94.5,79.5C 92.4026,74.9664 90.5692,70.2997 89,65.5C 85.0275,53.4956 89.1942,47.9956 101.5,49C 105.908,51.6473 107.741,55.4806 107,60.5C 105.077,69.004 101.577,76.6707 96.5,83.5 Z"/></g>
<g><path style="opacity:0.983" fill="#ff927d" d="M 203.5,36.5 C 203.17,42.8682 203.504,49.2015 204.5,55.5C 205.107,55.3764 205.44,55.0431 205.5,54.5C 209.346,48.1381 213.679,42.1381 218.5,36.5C 219.498,44.4723 219.831,52.4723 219.5,60.5C 218.5,60.5 217.5,60.5 216.5,60.5C 216.666,54.4908 216.499,48.4908 216,42.5C 212.046,48.9482 207.546,54.9482 202.5,60.5C 202.167,56.5 201.833,52.5 201.5,48.5C 201.509,44.107 202.176,40.107 203.5,36.5 Z"/></g>
<g><path style="opacity:0.909" fill="#ffa593" d="M 203.5,36.5 C 204.167,42.5 204.833,48.5 205.5,54.5C 205.44,55.0431 205.107,55.3764 204.5,55.5C 203.504,49.2015 203.17,42.8682 203.5,36.5 Z"/></g>
<g><path style="opacity:0.98" fill="#fd8770" d="M 165.5,36.5 C 166.496,36.4142 167.329,36.7476 168,37.5C 170.972,44.6106 173.805,51.7773 176.5,59C 176.167,59.5 175.833,60 175.5,60.5C 174.502,58.5101 173.502,56.5101 172.5,54.5C 168.5,53.1667 164.5,53.1667 160.5,54.5C 159.877,56.7105 158.877,58.7105 157.5,60.5C 157.167,60 156.833,59.5 156.5,59C 159.409,51.4363 162.409,43.9363 165.5,36.5 Z"/></g>
<g><path style="opacity:0.256" fill="#fde1dc" d="M 165.5,41.5 C 168.661,43.9201 170.327,47.2534 170.5,51.5C 167.833,51.5 165.167,51.5 162.5,51.5C 163.492,48.1771 164.492,44.8437 165.5,41.5 Z"/></g>
<g><path style="opacity:0.832" fill="#ff8b74" d="M 63.5,49.5 C 65.4672,49.2606 67.3005,49.5939 69,50.5C 69.8214,53.5541 69.6548,56.5541 68.5,59.5C 67.5258,57.2573 67.1924,54.924 67.5,52.5C 66.5,52.5 65.5,52.5 64.5,52.5C 64.8076,54.924 64.4742,57.2573 63.5,59.5C 62.3342,56.1631 62.3342,52.8298 63.5,49.5 Z"/></g>
<g><path style="opacity:0.855" fill="#ff8b74" d="M 75.5,49.5 C 77.288,49.2148 78.9547,49.5481 80.5,50.5C 81.7485,53.4937 81.7485,56.4937 80.5,59.5C 79.5258,57.2573 79.1924,54.924 79.5,52.5C 78.5,52.5 77.5,52.5 76.5,52.5C 76.8076,54.924 76.4742,57.2573 75.5,59.5C 74.2495,56.1259 74.2495,52.7926 75.5,49.5 Z"/></g>
<g><path style="opacity:0.885" fill="#fe8972" d="M 94.5,32.5 C 96.8333,32.5 99.1667,32.5 101.5,32.5C 101.179,34.0481 100.179,34.7148 98.5,34.5C 98.5,38.5 98.5,42.5 98.5,46.5C 105.362,47.1962 109.028,51.0295 109.5,58C 107.595,68.0516 103.929,77.385 98.5,86C 97.5632,86.6917 96.8966,86.525 96.5,85.5C 96.5,84.8333 96.5,84.1667 96.5,83.5C 101.577,76.6707 105.077,69.004 107,60.5C 107.741,55.4806 105.908,51.6473 101.5,49C 89.1942,47.9956 85.0275,53.4956 89,65.5C 90.5692,70.2997 92.4026,74.9664 94.5,79.5C 93.5,79.5 92.5,79.5 91.5,79.5C 88.771,72.3123 86.4377,64.979 84.5,57.5C 84.577,55.701 85.077,54.0344 86,52.5C 90.9226,49.5082 92.756,45.1749 91.5,39.5C 90.5,39.5 89.5,39.5 88.5,39.5C 88.8076,41.924 88.4742,44.2573 87.5,46.5C 86.3483,43.8938 86.1816,41.2272 87,38.5C 89.5515,36.9797 91.7182,37.3131 93.5,39.5C 93.5,41.8333 93.5,44.1667 93.5,46.5C 94.791,46.7373 95.791,46.404 96.5,45.5C 96.5,41.8333 96.5,38.1667 96.5,34.5C 84.1667,34.5 71.8333,34.5 59.5,34.5C 71.1667,33.8333 82.8333,33.1667 94.5,32.5 Z"/></g>
<g><path style="opacity:0.694" fill="#f8b0a1" d="M 93.5,39.5 C 93.9397,41.8439 94.9397,43.8439 96.5,45.5C 95.791,46.404 94.791,46.7373 93.5,46.5C 93.5,44.1667 93.5,41.8333 93.5,39.5 Z"/></g>
<g><path style="opacity:0.486" fill="#ffc5ba" d="M 248.5,50.5 C 250.948,49.5269 253.615,49.1936 256.5,49.5C 256.5,53.1667 256.5,56.8333 256.5,60.5C 255.521,57.3752 255.187,54.0419 255.5,50.5C 253.167,50.5 250.833,50.5 248.5,50.5 Z"/></g>
<g><path style="opacity:0.984" fill="#fe8a73" d="M 230.5,36.5 C 231.376,36.3691 232.043,36.7025 232.5,37.5C 235.793,44.5448 238.793,51.7115 241.5,59C 241.167,59.5 240.833,60 240.5,60.5C 237.688,54.0562 234.688,47.7229 231.5,41.5C 228.239,47.6902 225.239,54.0236 222.5,60.5C 222.167,60 221.833,59.5 221.5,59C 224.374,51.4224 227.374,43.9224 230.5,36.5 Z"/></g>
<g><path style="opacity:0.905" fill="#ff866e" d="M 94.5,52.5 C 102.619,52.4687 104.619,55.9687 100.5,63C 95.3076,64.8719 92.3076,63.2052 91.5,58C 91.8627,55.8077 92.8627,53.9744 94.5,52.5 Z"/></g>
<g><path style="opacity:0.245" fill="#ffded8" d="M 95.5,54.5 C 99.9764,54.8003 101.31,56.9669 99.5,61C 93.7377,61.4178 92.4044,59.2511 95.5,54.5 Z"/></g>
<g><path style="opacity:0.847" fill="#fe8169" d="M 94.5,32.5 C 82.8333,33.1667 71.1667,33.8333 59.5,34.5C 59.5,49.5 59.5,64.5 59.5,79.5C 63.8333,79.5 68.1667,79.5 72.5,79.5C 72.5,73.8333 72.5,68.1667 72.5,62.5C 76.5,62.5 80.5,62.5 84.5,62.5C 84.5,68.1667 84.5,73.8333 84.5,79.5C 86.8333,79.5 89.1667,79.5 91.5,79.5C 92.5,79.5 93.5,79.5 94.5,79.5C 95.1667,80.8333 95.8333,82.1667 96.5,83.5C 96.5,84.1667 96.5,84.8333 96.5,85.5C 95.1882,84.8549 94.1882,83.8549 93.5,82.5C 79.1426,82.1571 65.1426,81.1571 51.5,79.5C 53.5,79.5 55.5,79.5 57.5,79.5C 57.5,64.5 57.5,49.5 57.5,34.5C 55.8212,34.7148 54.8212,34.0481 54.5,32.5C 56.8333,32.5 59.1667,32.5 61.5,32.5C 61.8897,29.5342 61.223,26.8676 59.5,24.5C 71.8333,23.1667 84.1667,23.1667 96.5,24.5C 94.777,26.8676 94.1103,29.5342 94.5,32.5 Z"/></g>
<g><path style="opacity:0.214" fill="#ffdfd9" d="M 63.5,25.5 C 73.1667,25.5 82.8333,25.5 92.5,25.5C 92.5,27.8333 92.5,30.1667 92.5,32.5C 82.8333,32.5 73.1667,32.5 63.5,32.5C 63.5,30.1667 63.5,27.8333 63.5,25.5 Z"/></g>
<g><path style="opacity:0.833" fill="#ff856d" d="M 63.5,63.5 C 65.4672,63.2606 67.3005,63.5939 69,64.5C 69.8184,67.2272 69.6517,69.8938 68.5,72.5C 67.5258,70.2573 67.1924,67.924 67.5,65.5C 66.5,65.5 65.5,65.5 64.5,65.5C 64.8076,67.924 64.4742,70.2573 63.5,72.5C 62.2588,69.463 62.2588,66.463 63.5,63.5 Z"/></g>
<g><path style="opacity:0.223" fill="#ffe4df" d="M 74.5,65.5 C 76.8333,65.5 79.1667,65.5 81.5,65.5C 81.5,70.1667 81.5,74.8333 81.5,79.5C 79.1667,79.5 76.8333,79.5 74.5,79.5C 74.5,74.8333 74.5,70.1667 74.5,65.5 Z"/></g>
<g><path style="opacity:0.682" fill="#ffb3a4" d="M 74.5,65.5 C 76.9479,64.5269 79.6146,64.1936 82.5,64.5C 82.8205,69.6946 82.4872,74.6946 81.5,79.5C 81.5,74.8333 81.5,70.1667 81.5,65.5C 79.1667,65.5 76.8333,65.5 74.5,65.5 Z"/></g>
<g><path style="opacity:0.944" fill="#ffa594" d="M 150.5,73.5 C 148.167,73.5 145.833,73.5 143.5,73.5C 143.5,78.5 143.5,83.5 143.5,88.5C 142.512,83.3595 142.179,78.0262 142.5,72.5C 145.385,72.1936 148.052,72.5269 150.5,73.5 Z"/></g>
<g><path style="opacity:0.969" fill="#ff907a" d="M 298.5,78.5 C 305,77.4987 307.5,80.1653 306,86.5C 303,90.5 300,90.5 297,86.5C 296.109,83.5024 296.609,80.8357 298.5,78.5 Z"/></g>
<g><path style="opacity:0.224" fill="#ffe3de" d="M 299.5,79.5 C 305.488,79.664 306.821,82.164 303.5,87C 297.403,87.1475 296.07,84.6475 299.5,79.5 Z"/></g>
<g><path style="opacity:0.953" fill="#f88872" d="M 317.5,83.5 C 317.833,82.8333 318.167,82.1667 318.5,81.5C 319.794,80.7101 320.961,79.7101 322,78.5C 322.667,81.8333 322.667,85.1667 322,88.5C 321.667,86.1667 321.333,83.8333 321,81.5C 320.184,82.8228 319.017,83.4894 317.5,83.5 Z"/></g>
<g><path style="opacity:0.98" fill="#fc8e79" d="M 175.5,78.5 C 178.212,78.7375 180.712,78.7375 183,78.5C 183.667,82.5 183.667,86.5 183,90.5C 181.759,92.4206 180.259,92.754 178.5,91.5C 183.969,88.4657 183.802,87.4657 178,88.5C 176.342,88.3248 175.009,87.6582 174,86.5C 173.109,83.5024 173.609,80.8357 175.5,78.5 Z"/></g>
<g><path style="opacity:0.992" fill="#ff8f79" d="M 220.5,78.5 C 221.161,79.7175 221.828,81.0508 222.5,82.5C 224.167,81.5 225.5,80.1667 226.5,78.5C 227.282,80.3293 226.616,81.8293 224.5,83C 226.332,84.4886 227.165,86.322 227,88.5C 225.426,87.0158 224.093,85.3492 223,83.5C 221.883,84.9494 221.216,86.6161 221,88.5C 220.502,85.1832 220.335,81.8499 220.5,78.5 Z"/></g>
<g><path style="opacity:0.257" fill="#fae1dc" d="M 176.5,79.5 C 182.488,79.664 183.821,82.164 180.5,87C 174.403,87.1475 173.07,84.6475 176.5,79.5 Z"/></g>
<g><path style="opacity:0.98" fill="#ff9a86" d="M 190.5,78.5 C 192.953,79.8165 195.62,80.6498 198.5,81C 201.265,83.9663 200.932,86.633 197.5,89C 195.153,89.3336 192.819,89.167 190.5,88.5C 190.5,85.1667 190.5,81.8333 190.5,78.5 Z"/></g>
<g><path style="opacity:0.262" fill="#ffe3de" d="M 192.5,81.5 C 197.667,80.4919 199.334,82.3252 197.5,87C 195.866,87.4935 194.199,87.6602 192.5,87.5C 192.5,85.5 192.5,83.5 192.5,81.5 Z"/></g>
<g><path style="opacity:0.988" fill="#fb9682" d="M 251.5,78.5 C 252.161,79.7175 252.828,81.0508 253.5,82.5C 255.167,81.5 256.5,80.1667 257.5,78.5C 258.282,80.3293 257.616,81.8293 255.5,83C 257.332,84.4886 258.165,86.322 258,88.5C 256.426,87.0158 255.093,85.3492 254,83.5C 253.798,85.2556 253.298,86.9223 252.5,88.5C 251.513,85.2317 251.18,81.8984 251.5,78.5 Z"/></g>
<g><path style="opacity:0.957" fill="#fd8b75" d="M 316.5,81.5 C 314.656,83.2789 313.99,85.6122 314.5,88.5C 313.194,85.3132 313.194,81.9798 314.5,78.5C 315.425,79.3569 316.092,80.3569 316.5,81.5 Z"/></g>
<g><path style="opacity:0.605" fill="#fdb7aa" d="M 316.5,81.5 C 317.167,81.5 317.833,81.5 318.5,81.5C 318.167,82.1667 317.833,82.8333 317.5,83.5C 316.883,83.3893 316.383,83.056 316,82.5C 315.809,84.7078 315.309,86.7078 314.5,88.5C 313.99,85.6122 314.656,83.2789 316.5,81.5 Z"/></g>
<g><path style="opacity:0.976" fill="#fe9681" d="M 158.5,79.5 C 159.077,78.2267 159.743,78.2267 160.5,79.5C 162.211,86.1175 163.878,86.1175 165.5,79.5C 166.167,78.1667 166.833,78.1667 167.5,79.5C 165.754,83.3267 163.754,86.9934 161.5,90.5C 161.324,88.3284 161.157,85.9951 161,83.5C 160.392,81.9336 159.558,80.6002 158.5,79.5 Z"/></g>
<g><path style="opacity:0.996" fill="#fc9681" d="M 235.5,78.5 C 238.5,78.5 241.5,78.5 244.5,78.5C 244.5,81.8333 244.5,85.1667 244.5,88.5C 234.986,90.6615 231.986,87.3282 235.5,78.5 Z"/></g>
<g><path style="opacity:0.251" fill="#fee1dc" d="M 236.5,79.5 C 241.984,79.4809 243.65,81.9809 241.5,87C 234.798,87.8024 233.132,85.3024 236.5,79.5 Z"/></g>
<g><path style="opacity:0.988" fill="#ff947f" d="M 280.5,78.5 C 283.5,78.5 286.5,78.5 289.5,78.5C 289.665,82.1817 289.499,85.8484 289,89.5C 287.737,91.7969 285.903,92.6302 283.5,92C 284.833,91 286.167,90 287.5,89C 279.041,89.6973 276.707,86.1973 280.5,78.5 Z"/></g>
<g><path style="opacity:0.232" fill="#ffe2dc" d="M 281.5,79.5 C 286.984,79.4809 288.65,81.9809 286.5,87C 279.798,87.8024 278.132,85.3024 281.5,79.5 Z"/></g>
<g><path style="opacity:0.973" fill="#ff927c" d="M 150.5,73.5 C 148.735,74.4614 146.735,74.7947 144.5,74.5C 144.5,75.8333 144.5,77.1667 144.5,78.5C 152.49,78.0859 154.49,81.2525 150.5,88C 148.19,88.4966 145.857,88.6633 143.5,88.5C 143.5,83.5 143.5,78.5 143.5,73.5C 145.833,73.5 148.167,73.5 150.5,73.5 Z"/></g>
<g><path style="opacity:0.265" fill="#ffe1dc" d="M 144.5,80.5 C 147.881,79.8877 150.214,81.0544 151.5,84C 150.219,87.0437 147.885,88.2104 144.5,87.5C 144.5,85.1667 144.5,82.8333 144.5,80.5 Z"/></g>
<g><path style="opacity:0.918" fill="#fd9581" d="M 331.5,78.5 C 334.347,78.7824 337.013,78.7824 339.5,78.5C 340.487,81.7683 340.82,85.1016 340.5,88.5C 330.986,90.6615 327.986,87.3282 331.5,78.5 Z"/></g>
<g><path style="opacity:0.2" fill="#fee3de" d="M 332.5,79.5 C 338.488,79.664 339.821,82.164 336.5,87C 330.403,87.1475 329.07,84.6475 332.5,79.5 Z"/></g>
</svg>
