<?xml version="1.0" encoding="UTF-8"?>
<!DOCTYPE svg PUBLIC "-//W3C//DTD SVG 1.1//EN" "http://www.w3.org/Graphics/SVG/1.1/DTD/svg11.dtd">
<svg xmlns="http://www.w3.org/2000/svg" version="1.1" width="1020px" height="1020px" style="shape-rendering:geometricPrecision; text-rendering:geometricPrecision; image-rendering:optimizeQuality; fill-rule:evenodd; clip-rule:evenodd" xmlns:xlink="http://www.w3.org/1999/xlink">
<g><path style="opacity:0.993" fill="#dfb396" d="M 682.5,144.5 C 566.787,225.017 451.454,306.017 336.5,387.5C 258.453,315.238 165.786,279.238 58.5,279.5C 171.398,198.039 285.064,117.539 399.5,38C 487.466,33.5532 567.799,55.8865 640.5,105C 655.994,116.58 669.994,129.747 682.5,144.5 Z"/></g>
<g><path style="opacity:0.994" fill="#e2ac86" d="M 682.5,144.5 C 703.227,144.466 723.894,145.466 744.5,147.5C 631.445,231.215 516.445,312.215 399.5,390.5C 378.348,389.4 357.348,388.4 336.5,387.5C 451.454,306.017 566.787,225.017 682.5,144.5 Z"/></g>
<g><path style="opacity:0.999" fill="#edeeee" d="M 744.5,147.5 C 768.215,151.178 791.215,157.178 813.5,165.5C 810.026,168.802 806.359,171.968 802.5,175C 693.312,254.417 583.312,332.583 472.5,409.5C 470.182,493.167 467.849,576.834 465.5,660.5C 455.067,648.896 444.4,637.396 433.5,626C 430.861,625.412 428.527,625.912 426.5,627.5C 418.605,629.058 410.938,631.391 403.5,634.5C 402.506,629.544 402.173,624.544 402.5,619.5C 399.94,543.197 398.94,466.863 399.5,390.5C 516.445,312.215 631.445,231.215 744.5,147.5 Z"/></g>
<g><path style="opacity:0.995" fill="#e1ab86" d="M 813.5,165.5 C 861.27,177.714 903.603,199.881 940.5,232C 947.6,239.053 953.6,246.886 958.5,255.5C 843.5,335.5 728.5,415.5 613.5,495.5C 573.801,455.803 526.801,428.136 472.5,412.5C 472.5,411.5 472.5,410.5 472.5,409.5C 583.312,332.583 693.312,254.417 802.5,175C 806.359,171.968 810.026,168.802 813.5,165.5 Z"/></g>
<g><path style="opacity:0.998" fill="#bf9478" d="M 958.5,255.5 C 958.76,417.836 958.26,580.169 957,742.5C 842.908,823.125 728.408,903.125 613.5,982.5C 613.5,820.167 613.5,657.833 613.5,495.5C 728.5,415.5 843.5,335.5 958.5,255.5 Z"/></g>
<g><path style="opacity:0.994" fill="#e0a278" d="M 58.5,279.5 C 165.786,279.238 258.453,315.238 336.5,387.5C 357.348,388.4 378.348,389.4 399.5,390.5C 398.94,466.863 399.94,543.197 402.5,619.5C 400.058,617.04 397.058,615.207 393.5,614C 341.493,594.941 289.493,575.775 237.5,556.5C 236.833,556.5 236.167,556.5 235.5,556.5C 231.19,555.92 226.857,555.586 222.5,555.5C 219.82,564.555 216.987,573.555 214,582.5C 206.323,598.88 199.99,615.88 195,633.5C 188.076,649.273 181.743,665.273 176,681.5C 175.5,715.832 175.333,750.165 175.5,784.5C 175.5,793.833 175.5,803.167 175.5,812.5C 136.63,797.734 97.9633,782.4 59.5,766.5C 57.4063,604.005 57.073,441.672 58.5,279.5 Z"/></g>
<g><path style="opacity:0.995" fill="#e0a178" d="M 472.5,412.5 C 526.801,428.136 573.801,455.803 613.5,495.5C 613.5,657.833 613.5,820.167 613.5,982.5C 554.111,960.597 495.111,937.93 436.5,914.5C 436.5,839.167 436.5,763.833 436.5,688.5C 436.833,669.155 436.5,649.822 435.5,630.5C 432.573,629.199 429.573,628.199 426.5,627.5C 428.527,625.912 430.861,625.412 433.5,626C 444.4,637.396 455.067,648.896 465.5,660.5C 466.048,662.532 467.381,663.532 469.5,663.5C 471.755,579.85 472.755,496.183 472.5,412.5 Z"/></g>
<g><path style="opacity:0.984" fill="#dcb8a0" d="M 472.5,409.5 C 472.5,410.5 472.5,411.5 472.5,412.5C 472.755,496.183 471.755,579.85 469.5,663.5C 467.381,663.532 466.048,662.532 465.5,660.5C 467.849,576.834 470.182,493.167 472.5,409.5 Z"/></g>
<g><path style="opacity:1" fill="#bd9174" d="M 235.5,556.5 C 220.297,598.276 204.797,639.943 189,681.5C 188.5,718.498 188.333,755.498 188.5,792.5C 187.475,791.626 186.808,790.459 186.5,789C 187.079,786.946 187.412,784.946 187.5,783C 186.833,782.667 186.167,782.333 185.5,782C 186.435,772.731 186.435,763.897 185.5,755.5C 183.816,752.322 181.149,750.655 177.5,750.5C 177.357,752.262 177.691,753.929 178.5,755.5C 176.092,758.131 176.092,760.631 178.5,763C 177.715,764.543 177.715,766.21 178.5,768C 178.561,769.711 177.894,771.044 176.5,772C 177.083,773.619 177.083,775.452 176.5,777.5C 177.262,777.911 178.262,778.077 179.5,778C 176.793,779.199 176.126,781.033 177.5,783.5C 177.043,784.298 176.376,784.631 175.5,784.5C 175.333,750.165 175.5,715.832 176,681.5C 181.743,665.273 188.076,649.273 195,633.5C 199.99,615.88 206.323,598.88 214,582.5C 216.987,573.555 219.82,564.555 222.5,555.5C 226.857,555.586 231.19,555.92 235.5,556.5 Z"/></g>
<g><path style="opacity:1" fill="#efbc9a" d="M 235.5,556.5 C 236.167,556.5 236.833,556.5 237.5,556.5C 236.978,647.499 236.645,738.499 236.5,829.5C 236.5,832.167 236.5,834.833 236.5,837.5C 221.96,878.785 206.627,919.785 190.5,960.5C 189.833,960.5 189.167,960.5 188.5,960.5C 188.5,904.5 188.5,848.5 188.5,792.5C 188.333,755.498 188.5,718.498 189,681.5C 204.797,639.943 220.297,598.276 235.5,556.5 Z"/></g>
<g><path style="opacity:1" fill="#ae7e5e" d="M 237.5,556.5 C 289.493,575.775 341.493,594.941 393.5,614C 397.058,615.207 400.058,617.04 402.5,619.5C 402.173,624.544 402.506,629.544 403.5,634.5C 410.938,631.391 418.605,629.058 426.5,627.5C 429.573,628.199 432.573,629.199 435.5,630.5C 436.5,649.822 436.833,669.155 436.5,688.5C 435.833,688.5 435.5,688.833 435.5,689.5C 369.185,736.142 302.851,782.808 236.5,829.5C 236.645,738.499 236.978,647.499 237.5,556.5 Z"/></g>
<g><path style="opacity:1" fill="#bf9477" d="M 435.5,689.5 C 435.83,764.571 435.497,839.571 434.5,914.5C 368.651,888.439 302.651,862.773 236.5,837.5C 236.5,834.833 236.5,832.167 236.5,829.5C 302.851,782.808 369.185,736.142 435.5,689.5 Z"/></g>
<g><path style="opacity:0.999" fill="#cf9a77" d="M 436.5,688.5 C 436.5,763.833 436.5,839.167 436.5,914.5C 435.833,914.5 435.167,914.5 434.5,914.5C 435.497,839.571 435.83,764.571 435.5,689.5C 435.5,688.833 435.833,688.5 436.5,688.5 Z"/></g>
<g><path style="opacity:1" fill="#b78c70" d="M 188.5,792.5 C 188.5,848.5 188.5,904.5 188.5,960.5C 184.265,961.436 179.931,961.769 175.5,961.5C 175.5,911.833 175.5,862.167 175.5,812.5C 175.5,803.167 175.5,793.833 175.5,784.5C 176.376,784.631 177.043,784.298 177.5,783.5C 176.126,781.033 176.793,779.199 179.5,778C 178.262,778.077 177.262,777.911 176.5,777.5C 177.083,775.452 177.083,773.619 176.5,772C 177.894,771.044 178.561,769.711 178.5,768C 177.715,766.21 177.715,764.543 178.5,763C 176.092,760.631 176.092,758.131 178.5,755.5C 177.691,753.929 177.357,752.262 177.5,750.5C 181.149,750.655 183.816,752.322 185.5,755.5C 186.435,763.897 186.435,772.731 185.5,782C 186.167,782.333 186.833,782.667 187.5,783C 187.412,784.946 187.079,786.946 186.5,789C 186.808,790.459 187.475,791.626 188.5,792.5 Z"/></g>
<g><path style="opacity:1" fill="#0d0d0b" d="M 199.5,821.5 C 201.463,822.96 203.296,824.627 205,826.5C 205.5,833.492 205.666,840.492 205.5,847.5C 203.563,848.931 201.73,850.598 200,852.5C 199.5,842.172 199.334,831.839 199.5,821.5 Z"/></g>
<g><path style="opacity:1" fill="#363432" d="M 205.5,847.5 C 205.666,840.492 205.5,833.492 205,826.5C 203.296,824.627 201.463,822.96 199.5,821.5C 199.151,818.537 200.151,816.204 202.5,814.5C 204.817,816.316 206.984,818.316 209,820.5C 209.667,827.167 209.667,833.833 209,840.5C 207.787,842.925 206.621,845.259 205.5,847.5 Z"/></g>
<g><path style="opacity:0.537" fill="#5e493a" d="M 188.5,960.5 C 189.167,960.5 189.833,960.5 190.5,960.5C 190.389,961.117 190.056,961.617 189.5,962C 184.648,962.815 179.981,962.648 175.5,961.5C 179.931,961.769 184.265,961.436 188.5,960.5 Z"/></g>
</svg>
