<?xml version="1.0" encoding="UTF-8" standalone="yes"?>
<svg version="1.1" id="Layer_1" xmlns:x="&amp;ns_extend;" xmlns:i="&amp;ns_ai;" xmlns:graph="&amp;ns_graphs;" xmlns="http://www.w3.org/2000/svg" xmlns:xlink="http://www.w3.org/1999/xlink" x="0px" y="0px" viewBox="0 0 263.001709 315" style="enable-background:new 0 0 263.001709 315;" xml:space="preserve">
      <style type="text/css">.st0{fill:#2368CC;}	.st1{fill:#FFFFFF;}	.st2{opacity:0.4;enable-background:new    ;}</style>
    <metadata>
              <sfw>
                      <slices/>
            <sliceSourceBounds bottomLeftOrigin="true" height="315" width="263.001709" x="0.0000001" y="0.0000182"/>
                  </sfw>
          </metadata>
    <g id="color_index_1" fill="#2368cc">
              <path d="M262.7046509,171.6374359c-0.0256042-0.3280182-0.0525208-0.6469879-0.078949-0.9696503&#x9;&#x9;c-1.0360413-4.4794769-3.125885-11.5973969-1.0343933-9.8779144c-1.5399475-11.6755524-3.9335938-19.8975372-7.6831207-30.0355682&#x9;&#x9;c-2.6171875-4.0915909-5.3542786-7.7632904-4.1701813-9.7990417c-1.9361725-3.9536667-4.1104431-7.9384079-5.9970856-11.219902&#x9;&#x9;c-2.511795-4.3690567-6.5638733-9.7585144-9.5003052-13.8542633c-0.9283142-1.1905975-2.145401-2.1562805-3.6320496-2.900177&#x9;&#x9;c14.1660156-19.7038116,18.0916901-33.7306786,12.7662811-40.5607681&#x9;&#x9;c-4.2739868-5.0488739-10.0496368-11.7570572-14.907608-16.2467003&#x9;&#x9;c-7.3516846-6.7940083-13.5719604-11.1330185-17.611145-13.8059368&#x9;&#x9;c-11.6958466-7.7389174-25.447464-14.0068245-39.7774353-17.785162&#x9;&#x9;c-7.1433716-1.8832481-13.8745575-3.1119294-21.1833954-3.8664837c-3.0173798-0.3115919-6.9120331-0.53266-10.1902008-0.64291&#x9;&#x9;c-3.9265442,0.3876825-11.3341064,1.28582-10.3841095,0.0973918c-0.2089233,0.012032-0.423172,0.0232377-0.6231842,0.036509&#x9;&#x9;c-3.6579208,0.2433247-8.5251312,0.7333304-12.1606979,1.2042298c-2.4413071,0.3163685-5.6814651,0.8729119-8.081871,1.4183269&#x9;&#x9;c-3.7244339,0.8460593-8.5321121,2.0600874-12.4208679,3.2052028c-4.6636047,1.9983926-8.6480942,3.4277444-10.0080185,4.0366616&#x9;&#x9;c-0.8892822,0.3981781-3.8340149,1.7828484-3.5865097,1.0016098C66.951149,17.703577,56.4817848,25.6988983,52.9696922,28.3812008&#x9;&#x9;c-0.0329475,0.0251102-3.4368591,2.6408501-6.5357895,5.3691273c-1.5582161,1.3719521-3.4974823,3.0789948-6.7930031,6.3650932&#x9;&#x9;c-2.6201782,2.6126251-6.6757278,6.9262962-11.1163521,12.6397629c-0.2338734,0.3156319-0.4783344,0.6476364-0.7259979,0.9849167&#x9;&#x9;c0.1539383-0.173996,0.3225918,1.1304512-0.3544521,2.0353928c-1.4157448,1.8922462-4.7845936,6.0242081-7.0550213,8.9500313&#x9;&#x9;c0.0022221-0.004982,0.0048027-0.0095062,0.0069714-0.014473c-0.0118771,0.0171738-0.0243206,0.0349884-0.0361462,0.0521545&#x9;&#x9;c-0.3588943,0.462883-0.706789,0.9199066-1.0451813,1.3717346c-0.7767601,1.2947693-1.5282154,2.6029739-2.1416912,3.7419052&#x9;&#x9;c-2.3034248,4.2764359-5.0400009,10.1549454-7.0121078,14.594017c-0.9910107,2.230629-2.0692921,5.3077698-2.8560181,7.6184845&#x9;&#x9;c-0.5224352,1.5343704-1.0114083,3.0774078-1.4782281,4.6258011c1.0210648,2.7846909-2.4754877,9.4028854-2.6340206,10.1239777&#x9;&#x9;c-2.1332216,9.7040634-3.2074754,19.6212006-3.1924999,29.6338196c0.0110508,7.3455658,0.6302067,14.7526703,1.8401686,22.0157166&#x9;&#x9;c0.9680828,5.8113098,2.2058783,10.9187469,3.3908982,15.0701141c1.3957,3.4305878,2.5820222,5.4928589,3.0293713,9.2686157&#x9;&#x9;c1.4322691,3.9087982,4.0268373,10.4338379,7.9600515,17.7004547c3.6857605,6.8092041,7.6769142,12.9182434,12.5604477,19.2256622&#x9;&#x9;c0.9860535,1.2645569,2.2947502,2.277771,3.9081173,3.0395966c-13.7849178,19.3374786-17.5645065,33.1086884-12.3086014,39.8495331&#x9;&#x9;c6.725975,8.3858032,13.318409,14.9989624,19.3349648,20.1827393c1.3629684-2.3362732,5.480587,3.0642395,8.36129,6.6931763&#x9;&#x9;c3.21455,2.3222656,6.1429672,4.1881104,8.6850166,5.6651306c5.9756546,3.4719543,11.7569351,6.5289917,17.9527817,9.1746216&#x9;&#x9;c0.1395798-2.1098022,5.0573044,0.9815063,9.3246231,3.5407104c6.9562378,2.3197021,14.6687775,4.2007141,23.8132324,5.6417847&#x9;&#x9;c1.7050781,0.2687073,3.6126404,0.5241394,5.6855469,0.7460938c0.375145-0.6600952,7.6517715,0.3575134,11.0744705,0.6896057&#x9;&#x9;c8.6604309,0.1639709,18.9938812-0.5015869,30.3874969-2.9064636c-3.6555939-0.8537903,5.628067-1.4469604,11.0335236-2.8120728&#x9;&#x9;c7.1885986-2.1502991,14.6845703-5.0230408,22.359314-8.8249512c6.6673126-3.3028259,19.7862396-10.7027893,32.737915-23.1540833&#x9;&#x9;c10.2248535-9.8297424,16.6315918-18.8427734,20.9312439-25.720993c4.0845642-6.8505402,4.5468445-10.5692444,5.3263397-9.0954285&#x9;&#x9;c4.8173828-8.9358826,8.6998901-19.3576355,11.3873901-30.1482849c0.6343384-3.4389954,1.6413574-12.791626,2.3556824-11.3323975&#x9;&#x9;C262.8236389,190.8781433,263.4198608,180.7980499,262.7046509,171.6374359z"/>
          </g>
    <g id="color_index_0" fill="#ffffff">
              <path d="M8.4778299,179.0294189c-1.1060643-2.7045746-2.1091356-5.4306793-3.0100875-8.1735382&#x9;&#x9;c-0.1536727,1.2019196-0.2297587,1.9562225-0.2365212,2.7028961c0.7143793,2.5024872,1.4041686,4.7292938,2.0095901,6.4810791&#x9;&#x9;c0.2251334,0.6515045,0.5691724,1.5577698,1.0197811,2.7875366C8.2079754,181.627182,8.2708941,180.4117432,8.4778299,179.0294189z&#x9;&#x9; M20.3906078,64.7824326c-0.0021648,0.0049744-0.0047493,0.0094986-0.0069523,0.014473&#x9;&#x9;C37.4128838,42.8518181,71.0211868,16.7532349,96.0343323,6.0346241c-0.4447937,0.1309543-0.8912659,0.3330655-1.3087082,0.4615502&#x9;&#x9;c-3.2999573,1.0154943-7.6177597,2.6346631-10.8081512,3.9545398c-0.4976044,0.2058725-0.9899673,0.4133787-1.4776917,0.6221762&#x9;&#x9;c-18.6860847,9.7307348-40.6283226,26.827282-54.6412315,42.6672058c-2.0095615,2.736557-4.4074287,6.0991592-6.1640854,8.7584038&#x9;&#x9;c-0.7232685,1.0949707-1.5318642,2.323101-2.3197556,3.6364403c0.3384209-0.4518204,0.6808701-0.837471,1.039732-1.3003464&#x9;&#x9;C20.366293,64.817421,20.3787174,64.7996063,20.3906078,64.7824326z M53.5543785,115.1153107&#x9;&#x9;c-1.3865852-2.3067245-2.7037277-4.587616-3.9508896-6.8394852c-9.9073944,9.719986-18.8202305,19.5399704-26.0789433,28.8941727&#x9;&#x9;c-6.9848766,9.0095978-11.916729,16.9192047-14.886508,23.5916443c0.9258356,2.6638031,1.9514732,5.3180695,3.0777493,7.9582825&#x9;&#x9;c3.0330715-6.8146362,8.0699701-14.8927765,15.2037306-24.094223c-0.0010624-0.0022888-0.0020123-0.0043335-0.0030766-0.0066071&#x9;&#x9;C34.3233566,135.0793762,43.452282,125.0265427,53.5543785,115.1153107z M66.6129608,92.508728&#x9;&#x9;c1.380661,2.1283264,2.8187637,4.2971802,4.3134003,6.5037613c11.1189194-9.7676239,23.0046463-19.2702637,35.0962906-28.0753174&#x9;&#x9;c-1.7130051-2.031868-3.3956985-4.0051041-5.0458679-5.9177551C89.137558,73.6408997,77.4998322,82.9452667,66.6129608,92.508728z&#x9;&#x9; M120.3854523,51.6259499c1.8025131,1.8074493,3.6231842,3.6852951,5.4595108,5.632061&#x9;&#x9;c12.1480942-7.9177017,24.1968002-14.9028816,35.5853806-20.5229378c-2.0578918-1.8190765-4.1264038-3.5538902-6.2023773-5.2038307&#x9;&#x9;C144.0772095,37.0341721,132.2799988,43.8734283,120.3854523,51.6259499z M179.2811584,28.8676682&#x9;&#x9;c10.2477875-3.9092922,18.6876068-5.9274769,25.2155609-6.2112694c-2.3257904-1.7314682-4.6944427-3.3681889-7.1010895-4.9100838&#x9;&#x9;c-6.3917236,0.278017-14.6553345,2.2539577-24.6893158,6.0816822&#x9;&#x9;C174.9193573,25.4174957,177.1123352,27.0976772,179.2811584,28.8676682z M16.7310295,115.7764282&#x9;&#x9;c6.6325493-8.5471725,14.726263-17.4552917,23.7790184-26.3369751c-0.8365974-2.0587616-1.6018448-4.079834-2.2952538-6.0603333&#x9;&#x9;c-8.6741753,8.5100937-16.4947357,17.1299057-22.8523083,25.3206482c0-0.0002289-0.0138664,0.0173645-0.0165253,0.0207062&#x9;&#x9;c0,0.0001907,0.0000753,0.0003815,0.0000753,0.0003815c-7.4585071,9.737381-9.8981247,14.2978745-13.0275421,20.6494446&#x9;&#x9;c0.1558762,2.6691895,0.4089711,5.3464508,0.7599301,8.02742c2.7136073-6.0968018,7.2199636-13.324173,13.6023045-21.5562897&#x9;&#x9;L16.7310295,115.7764282z M83.2311249,45.4753494C72.8569031,53.0299759,62.659256,61.1830292,53.1195374,69.5631561&#x9;&#x9;c0.9165649,1.7734909,1.8944511,3.5975418,2.932663,5.469574c9.9477386-8.7386475,20.5815964-17.2404556,31.3994751-25.1181908&#x9;&#x9;C86.0061264,48.3686943,84.5986481,46.8882675,83.2311249,45.4753494z M105.1861649,37.6762543&#x9;&#x9;c10.8684158-7.0834999,21.6480789-13.3328342,31.8369827-18.3611088c-2.0888062-1.1488419-4.1744232-2.2106838-6.253891-3.1839714&#x9;&#x9;c-9.7708588,4.8216801-20.1084595,10.8147678-30.5311661,17.6078663&#x9;&#x9;C101.8602982,34.9762497,103.5104675,36.2892113,105.1861649,37.6762543z M175.5531921,6.7194085&#x9;&#x9;c-2.5885315-0.9855199-5.2014618-1.8749604-7.8341522-2.6675248c-5.6006775,0.2434072-12.8419647,1.9751043-21.6341705,5.3292379&#x9;&#x9;c2.3086243,0.8722687,4.612915,1.8376913,6.908783,2.8954315C162.1620483,8.7789669,169.7129517,6.9733768,175.5531921,6.7194085z&#x9;&#x9; M14.5177603,88.7950897c5.4199591-6.983963,12.0853319-14.3295212,19.482029-21.5864868&#x9;&#x9;c-0.2717476-1.718895-0.470253-3.3884773-0.5950508-5.0057106C23.856596,71.2464371,15.2982445,82.2567978,15.2972946,82.258049&#x9;&#x9;l-0.0000753,0.0001907c-4.1996937,5.4176788-7.3553081,10.2326126-9.4705219,14.4569244&#x9;&#x9;c-0.7947679,2.6360321-1.5134563,5.3629608-2.146383,8.0355759c-0.1816111,0.685997-0.367538,1.5485764-0.4876518,2.0884018&#x9;&#x9;C5.4096909,101.8578262,9.3046236,95.5203018,14.5177603,88.7950897z M72.3662109,34.9042168&#x9;&#x9;c-1.1182938-1.0062218-2.1910019-1.9399605-3.2159195-2.7991982c-8.2377739,5.9988976-16.335289,12.4727974-23.9103508,19.1272316&#x9;&#x9;c0.4228363,1.3408852,0.9107513,2.7422523,1.4627953,4.2013283C54.8332253,48.2912674,63.5245361,41.3427086,72.3662109,34.9042168&#x9;&#x9;z M112.8820419,9.894453c-2.0122986-0.4541426-4.00811-0.818018-5.9837036-1.0904503&#x9;&#x9;c-7.7587128,3.8287516-15.967308,8.5877438-24.243454,13.9817924c1.3650055,0.6246834,2.7678604,1.3303242,4.2061157,2.1156712&#x9;&#x9;C95.7440872,19.1118565,104.5544586,14.0041084,112.8820419,9.894453z M125.9406204,4.0703473&#x9;&#x9;c5.2511673-2.003217,9.8378677-3.3128366,13.7644577-3.9973924c-0.5410767-0.0181976-1.0693665-0.0341537-1.569931-0.0461588&#x9;&#x9;c-2.6305695-0.0632927-6.0718536-0.0142466-8.8141785,0.1435673c-3.0526352,0.7035518-6.4660339,1.756657-10.2558441,3.2023978&#x9;&#x9;C121.3470001,3.5102112,123.6402817,3.742867,125.9406204,4.0703473z M65.3017044,246.8134918&#x9;&#x9;c0.5070267-0.6265411,0.9502258-1.2022247,1.1496048-1.4636383&#x9;&#x9;c33.1150665-41.9467468,97.3667145-91.300766,144.4946899-110.8423615&#x9;&#x9;c22.7942657-9.451767,37.4485779-10.1458969,42.9621735-3.7531891c-0.2021027-0.5466156-0.4013672-1.1681366-0.6115265-1.7267609&#x9;&#x9;c-0.9412689-2.5023727-2.1910858-5.2796555-3.5586853-8.0722809c-6.0545197-5.8218231-20.7854462-4.7774963-43.271225,4.5463562&#x9;&#x9;c-48.1797943,19.9777374-113.8836746,70.4617462-147.6788635,113.3306427&#x9;&#x9;c-0.0004578-0.000412-0.0010643-0.0010223-0.0015945-0.0014343l-0.0871506,0.1115417&#x9;&#x9;c-0.0088921,0.0113983-0.0186157,0.0229797-0.0275841,0.0343781c0.0001526,0.0001831,0.0003052,0.0001831,0.0004578,0.000412&#x9;&#x9;l-0.9622307,1.2305603c-15.4124146,19.8797455-21.095993,34.5457916-17.9942322,42.6176605&#x9;&#x9;c2.9446678,2.5371094,5.745533,4.8034363,8.3613167,6.6931763&#x9;&#x9;C44.2141457,281.8365784,49.6154556,267.0462952,65.3017044,246.8134918z M97.2024765,268.5384216l0.8225021-1.0632629&#x9;&#x9;c28.7045593-36.4729919,84.6464844-79.4707489,125.6538391-96.4744568&#x9;&#x9;c22.8275299-9.4654846,36.2568207-8.8965759,38.9468842-0.3329163c-0.2933044-3.5867767-0.6351318-6.8501587-1.0344238-9.8779144&#x9;&#x9;C250.0203552,133.5926056,144.8031311,195.0058441,89.623085,262.54953c0,0-0.2524872,0.3123474-0.4770126,0.6099243&#x9;&#x9;c-0.2201996,0.2919006-0.3787689,0.4856262-0.3787689,0.4856262&#x9;&#x9;c-20.3292618,26.6365662-18.0647049,36.5832825-14.0526505,40.7132263c2.9885101,1.2760925,6.0738144,2.456665,9.3246155,3.5407104&#x9;&#x9;C77.7999649,302.2260132,81.7513885,288.467926,97.2024765,268.5384216z M228.1323242,198.3759308&#x9;&#x9;c-34.2983246,14.221817-81.0861359,50.1820221-105.1003571,80.6892548c-0.0000763,0-0.0001526,0-0.0001526,0&#x9;&#x9;s-0.4514771,0.5656738-0.6949234,0.8893738c-14.4553528,18.6451721-16.8784027,30.8418274-8.7988205,34.3323364&#x9;&#x9;c3.2760925,0.3508301,6.9860535,0.6121826,11.0744705,0.6896057c-7.3271332-1.9250488-10.3024979-9.5426941,6.4667892-32.09021&#x9;&#x9;l0.6510925-0.8337402c20.1567841-24.6828918,44.5175476-43.3695831,61.4081116-54.7009888&#x9;&#x9;c34.5202026-23.158783,67.5956879-34.5464935,65.6372528-15.0373383c0.9338989-3.7495728,1.7209167-7.54216,2.3556519-11.3323822&#x9;&#x9;C261.0601807,191.1705933,249.5332336,189.5019989,228.1323242,198.3759308z M227.1776886,233.6944733&#x9;&#x9;c-22.9693146,9.5241699-54.2944794,33.5930634-70.4045563,54.0301056c-0.0001526,0-0.0003052-0.0000916-0.0004578-0.0000916&#x9;&#x9;c0,0-0.2019653,0.2463074-0.5102234,0.6526184c-11.840744,15.2727661-11.6434937,24.0953979-1.2624359,23.6929321&#x9;&#x9;c3.5798798-0.7556152,7.2641449-1.6846008,11.0335236-2.8121033c-9.9024353,1.9307251-12.285614-5.9104309-1.2838593-20.1010132&#x9;&#x9;l0.3879547-0.4987793c13.8193817-17.5586243,40.7503204-38.2578583,60.4916229-46.4437103&#x9;&#x9;c16.7433929-6.9427032,22.9823914-2.6715546,16.432785,9.3435059c1.5082245-2.4128723,2.7593384-4.5651703,3.8221741-6.394928&#x9;&#x9;c0.5121918-0.8818359,1.0111542-1.7862396,1.5041351-2.7005005&#x9;&#x9;C253.1523132,230.1009979,245.6618958,226.0299683,227.1776886,233.6944733z"/>
          </g>
    <g>
              <path class="st2" d="M32.689209,222.7931061c1.434269-2.0119171,2.9718056-4.0137482,4.6237602-6.1445465&#x9;&#x9;c0,0.0000458,0,0.0000458,0,0.0000458C71.464386,172.598526,139.440506,120.1822586,189.1417542,99.5735779&#x9;&#x9;c20.1083832-8.3379593,34.1424866-10.2580948,41.4668121-6.592659&#x9;&#x9;c12.3321533-17.1527786,16.9039001-30.0105896,14.3677979-37.5479851&#x9;&#x9;c-0.3358612-0.9981842-0.7918243-1.9025993-1.3759918-2.7115479c-0.1806946-0.2502136-0.378891-0.4911957-0.582901-0.7231178&#x9;&#x9;c-5.8083649-6.6031036-21.1261139-5.7296143-44.8962097,4.126667&#x9;&#x9;c-49.8719025,20.6793861-118.081131,73.2754822-152.3496704,117.4766235&#x9;&#x9;c-17.8335629,23.0025024-22.9578953,39.1417694-16.7428722,46.4562531&#x9;&#x9;C29.9819584,221.1797028,31.2077179,222.0934753,32.689209,222.7931061z"/>
          </g>
  </svg>