<?xml version="1.0" encoding="UTF-8"?>
<!DOCTYPE svg PUBLIC "-//W3C//DTD SVG 1.1//EN" "http://www.w3.org/Graphics/SVG/1.1/DTD/svg11.dtd">
<svg xmlns="http://www.w3.org/2000/svg" version="1.1" width="340px" height="340px" style="shape-rendering:geometricPrecision; text-rendering:geometricPrecision; image-rendering:optimizeQuality; fill-rule:evenodd; clip-rule:evenodd" xmlns:xlink="http://www.w3.org/1999/xlink">
<g><path style="opacity:0.998" fill="#dfb497" d="M 227.5,48.5 C 188.954,75.2665 150.621,102.266 112.5,129.5C 86.4014,105.347 55.4014,93.3474 19.5,93.5C 57.2579,66.4428 95.2579,39.6095 133.5,13C 161.776,11.6492 187.776,18.6492 211.5,34C 217.474,38.149 222.807,42.9824 227.5,48.5 Z"/></g>
<g><path style="opacity:0.996" fill="#e2ac86" d="M 227.5,48.5 C 234.52,48.5015 241.52,48.8348 248.5,49.5C 210.701,77.2351 172.368,104.235 133.5,130.5C 126.515,129.911 119.515,129.578 112.5,129.5C 150.621,102.266 188.954,75.2665 227.5,48.5 Z"/></g>
<g><path style="opacity:1" fill="#eeefef" d="M 248.5,49.5 C 256.443,50.7507 264.11,52.7507 271.5,55.5C 233.889,82.9789 195.889,109.979 157.5,136.5C 156.833,164.5 156.167,192.5 155.5,220.5C 151.831,216.491 148.165,212.491 144.5,208.5C 141.167,209.5 137.833,210.5 134.5,211.5C 133.5,184.508 133.167,157.508 133.5,130.5C 172.368,104.235 210.701,77.2351 248.5,49.5 Z"/></g>
<g><path style="opacity:0.997" fill="#e2ab86" d="M 271.5,55.5 C 286.365,59.4319 299.698,66.2652 311.5,76C 314.777,78.7663 317.443,81.933 319.5,85.5C 281.167,112.167 242.833,138.833 204.5,165.5C 191.363,152.052 175.696,142.719 157.5,137.5C 157.5,137.167 157.5,136.833 157.5,136.5C 195.889,109.979 233.889,82.9789 271.5,55.5 Z"/></g>
<g><path style="opacity:1" fill="#bf9478" d="M 319.5,85.5 C 319.667,139.501 319.5,193.501 319,247.5C 280.953,274.387 242.787,301.053 204.5,327.5C 204.5,273.5 204.5,219.5 204.5,165.5C 242.833,138.833 281.167,112.167 319.5,85.5 Z"/></g>
<g><path style="opacity:0.998" fill="#e1a278" d="M 19.5,93.5 C 55.4014,93.3474 86.4014,105.347 112.5,129.5C 119.515,129.578 126.515,129.911 133.5,130.5C 133.167,157.508 133.5,184.508 134.5,211.5C 137.833,210.5 141.167,209.5 144.5,208.5C 148.165,212.491 151.831,216.491 155.5,220.5C 155.56,221.043 155.893,221.376 156.5,221.5C 157.5,193.508 157.833,165.508 157.5,137.5C 175.696,142.719 191.363,152.052 204.5,165.5C 204.5,219.5 204.5,273.5 204.5,327.5C 142.822,303.995 81.3217,279.995 20,255.5C 19.5,201.501 19.3333,147.501 19.5,93.5 Z"/></g>
<g><path style="opacity:1" fill="#dbb59c" d="M 157.5,136.5 C 157.5,136.833 157.5,137.167 157.5,137.5C 157.833,165.508 157.5,193.508 156.5,221.5C 155.893,221.376 155.56,221.043 155.5,220.5C 156.167,192.5 156.833,164.5 157.5,136.5 Z"/></g>
</svg>
